<svg fill="#000000" xmlns="http://www.w3.org/2000/svg"  viewBox="0 0 50 50" width="50px" height="50px"><path d="M 10 4 C 13.148438 4.960938 16.300781 5.921875 19.445313 6.890625 C 19.441406 14.664063 19.453125 22.4375 19.441406 30.210938 C 16.382813 32.917969 13.339844 35.644531 10.289063 38.363281 C 17.746094 34.445313 25.199219 30.519531 32.65625 26.59375 C 30.585938 25.652344 28.515625 24.726563 26.445313 23.78125 C 25.054688 20.746094 23.652344 17.71875 22.257813 14.683594 C 29.171875 16.796875 36.085938 18.917969 43 21.039063 C 43 24.417969 43 27.796875 43 31.175781 C 35.132813 35.867188 27.257813 40.550781 19.390625 45.242188 C 16.261719 43.050781 13.132813 40.855469 10 38.664063 C 10 27.109375 10 15.554688 10 4 M 10 2 C 9.574219 2 9.15625 2.136719 8.808594 2.394531 C 8.300781 2.769531 8 3.367188 8 4 L 8 38.660156 C 8 39.316406 8.316406 39.925781 8.851563 40.300781 C 10.980469 41.789063 13.109375 43.28125 15.234375 44.773438 L 18.242188 46.882813 C 18.585938 47.121094 18.984375 47.242188 19.390625 47.242188 C 19.742188 47.242188 20.097656 47.148438 20.414063 46.960938 C 24.761719 44.367188 29.109375 41.777344 33.460938 39.1875 L 44.023438 32.894531 C 44.628906 32.535156 45 31.882813 45 31.175781 L 45 26.109375 L 44.996094 21.039063 C 44.996094 20.160156 44.425781 19.386719 43.585938 19.128906 L 39.003906 17.722656 C 33.617188 16.070313 28.226563 14.417969 22.839844 12.773438 C 22.644531 12.714844 22.449219 12.6875 22.253906 12.6875 C 21.972656 12.6875 21.699219 12.746094 21.445313 12.855469 C 21.445313 10.867188 21.445313 8.882813 21.445313 6.894531 C 21.445313 6.015625 20.875 5.242188 20.035156 4.980469 C 16.886719 4.011719 13.734375 3.046875 10.582031 2.089844 C 10.390625 2.027344 10.195313 2 10 2 Z M 21.441406 30.238281 C 21.441406 30.230469 21.441406 30.222656 21.441406 30.210938 C 21.445313 26.046875 21.445313 21.878906 21.445313 17.710938 C 21.695313 18.246094 21.941406 18.785156 22.191406 19.320313 C 23.003906 21.085938 23.816406 22.851563 24.628906 24.617188 C 24.828125 25.054688 25.179688 25.40625 25.617188 25.605469 C 26.445313 25.980469 27.273438 26.355469 28.101563 26.730469 L 26.457031 27.597656 C 24.785156 28.476563 23.113281 29.359375 21.441406 30.238281 Z"/></svg>