<svg id="flat" height="512" viewBox="0 0 512 512" width="512" xmlns="http://www.w3.org/2000/svg"><path d="m304 464h-96l24-80h48z" fill="#476c99"/><path d="m473 392h-434c-8.284 0-15-6.716-15-15v-258c0-8.284 6.716-15 15-15h434c8.284 0 15 6.716 15 15v258c0 8.284-6.716 15-15 15z" fill="#77d0e8"/><path d="m344 488h-176v-3.741c0-15.607 12.652-28.259 28.259-28.259h119.481c15.608 0 28.26 12.652 28.26 28.259z" fill="#283e57"/><path d="m473 392h-434c-8.284 0-15-6.716-15-15v-17h464v17c0 8.284-6.716 15-15 15z" fill="#6498d8"/><path d="m424 360h32v32h-32z" fill="#446893"/><path d="m392 360h32v32h-32z" fill="#ffda7d"/><path d="m344 360h48v32h-48z" fill="#ef7086"/><path d="m451 328h-390c-2.761 0-5-2.239-5-5v-294c0-2.761 2.239-5 5-5h390c2.761 0 5 2.239 5 5v294c0 2.761-2.239 5-5 5z" fill="#ffda7d"/><path d="m456 72h-400v-43c0-2.761 2.239-5 5-5h390c2.761 0 5 2.239 5 5z" fill="#6498d8"/><path d="m152 72h-96v-43c0-2.761 2.239-5 5-5h91z" fill="#466b97"/><g><path d="m80.02 56c-4.418 0-8.005-3.582-8.005-8s3.577-8 7.995-8h.01c4.419 0 8 3.582 8 8s-3.582 8-8 8z" fill="#ef7086"/></g><g><path d="m104.02 56c-4.418 0-8.005-3.582-8.005-8s3.577-8 7.995-8h.01c4.419 0 8 3.582 8 8s-3.582 8-8 8z" fill="#ef7086"/></g><g><path d="m128.02 56c-4.418 0-8.005-3.582-8.005-8s3.577-8 7.995-8h.01c4.419 0 8 3.582 8 8s-3.582 8-8 8z" fill="#ef7086"/></g><g><path d="m200 56h-16c-4.418 0-8-3.582-8-8s3.582-8 8-8h16c4.418 0 8 3.582 8 8s-3.582 8-8 8z" fill="#283e57"/></g><g><path d="m312 56h-80c-4.418 0-8-3.582-8-8s3.582-8 8-8h80c4.418 0 8 3.582 8 8s-3.582 8-8 8z" fill="#283e57"/></g><path d="m160 104h192v32h-192z" fill="#6498d8"/><path d="m88 168h144v48h-144z" fill="#446893"/><path d="m264 248h160v48h-160z" fill="#446893"/><g><path d="m424 176h-112c-4.418 0-8-3.582-8-8s3.582-8 8-8h112c4.418 0 8 3.582 8 8s-3.582 8-8 8z" fill="#ef7086"/></g><g><path d="m424 200h-160c-4.418 0-8-3.582-8-8s3.582-8 8-8h160c4.418 0 8 3.582 8 8s-3.582 8-8 8z" fill="#ef7086"/></g><g><path d="m424 224h-160c-4.418 0-8-3.582-8-8s3.582-8 8-8h160c4.418 0 8 3.582 8 8s-3.582 8-8 8z" fill="#ef7086"/></g><path d="m208 360v-32h-18.332c-1.108-3.722-2.583-7.287-4.4-10.641l12.957-12.957-22.627-22.627-12.957 12.957c-3.354-1.817-6.918-3.292-10.641-4.4v-18.332h-32v18.332c-3.722 1.108-7.287 2.583-10.641 4.4l-12.957-12.957-22.627 22.627 12.957 12.957c-1.817 3.354-3.292 6.918-4.4 10.641h-18.332v32h18.332c1.108 3.722 2.583 7.287 4.4 10.641l-12.957 12.957 22.627 22.627 12.957-12.957c3.354 1.817 6.918 3.292 10.641 4.4v18.332h32v-18.332c3.722-1.108 7.287-2.583 10.641-4.4l12.957 12.957 22.627-22.627-12.957-12.957c1.817-3.354 3.292-6.918 4.4-10.641z" fill="#283e57"/><circle cx="136" cy="344" fill="#ffda7d" r="32"/><g><path d="m232 256h-144c-4.418 0-8-3.582-8-8s3.582-8 8-8h144c4.418 0 8 3.582 8 8s-3.582 8-8 8z" fill="#ef7086"/></g><g><path d="m232 280h-32c-4.418 0-8-3.582-8-8s3.582-8 8-8h32c4.418 0 8 3.582 8 8s-3.582 8-8 8z" fill="#ef7086"/></g><g><path d="m232 304h-8c-4.418 0-8-3.582-8-8s3.582-8 8-8h8c4.418 0 8 3.582 8 8s-3.582 8-8 8z" fill="#ef7086"/></g></svg>