<svg id="Capa_1" enable-background="new 0 0 512 512" height="512" viewBox="0 0 512 512" width="512" xmlns="http://www.w3.org/2000/svg"><g><g><g><path d="m286 497h-60c-8.284 0-15-6.716-15-15v-205.426c0-8.284 6.716-15 15-15h60c8.284 0 15 6.716 15 15v205.426c0 8.284-6.716 15-15 15z" fill="#fbac5b"/><path d="m286 261.574h-30v235.426h30c8.284 0 15-6.716 15-15v-205.426c0-8.284-6.716-15-15-15z" fill="#fd8f32"/></g><g><path d="m357.821 512h-203.642c-8.284 0-15-6.716-15-15v-60c0-8.284 6.716-15 15-15h203.643c8.284 0 15 6.716 15 15v60c-.001 8.284-6.717 15-15.001 15z" fill="#fd8f32"/><path d="m357.821 422h-101.821v90h101.821c8.284 0 15-6.716 15-15v-60c0-8.284-6.716-15-15-15z" fill="#fb6f44"/></g><g><path d="m387.821 512h-263.642c-8.284 0-15-6.716-15-15s6.716-15 15-15h263.643c8.284 0 15 6.716 15 15s-6.717 15-15.001 15z" fill="#fbac5b"/><path d="m387.821 482h-131.821v30h131.821c8.284 0 15-6.716 15-15s-6.716-15-15-15z" fill="#fd8f32"/></g></g><g><g><g><g><path d="m105.212 193.523h-30.442c-41.03 0-74.41-33.38-74.41-74.41v-104.113c0-8.284 6.716-15 15-15h89.852c8.284 0 15 6.716 15 15v163.523c0 8.285-6.715 15-15 15zm-74.852-163.523v89.113c0 24.488 19.922 44.41 44.41 44.41h15.442v-133.523z" fill="#fbac5b"/><path d="m406.788 193.523c-8.284 0-15-6.716-15-15v-163.523c0-8.284 6.716-15 15-15h89.852c8.284 0 15 6.716 15 15v73.671c0 57.815-47.037 104.852-104.852 104.852zm15-163.523v132.014c34.109-6.967 59.852-37.205 59.852-73.343v-58.671z" fill="#fd8f32"/></g><g><g><path d="m307.441 291.574h-102.882c-63.051 0-114.346-51.296-114.346-114.347v-158.704c-.001-10.213 8.309-18.523 18.523-18.523h294.528c10.214 0 18.523 8.31 18.523 18.523v158.704c.001 63.051-51.295 114.347-114.346 114.347z" fill="#fddb8d"/><path d="m403.264 0h-147.264v291.574h51.441c63.051 0 114.346-51.296 114.346-114.347v-158.704c.001-10.213-8.309-18.523-18.523-18.523z" fill="#fbac5b"/></g><g><path d="m257.009 183.652c-8.284 0-15-6.716-15-15v-78.652h-5.018c-8.284 0-15-6.716-15-15s6.716-15 15-15h20.018c8.284 0 15 6.716 15 15v93.652c0 8.284-6.716 15-15 15z" fill="#fbac5b"/><path d="m257.009 60h-1.009v123.601c.335.022.668.051 1.009.051 8.284 0 15-6.716 15-15v-93.652c0-8.284-6.716-15-15-15z" fill="#fd8f32"/></g></g></g><g><g><path d="m78.675 299.789c-2.24 0-4.474-.848-6.405-2.523l-16.649-14.443-16.649 14.443c-3.541 3.071-8.094 3.361-11.846.75-3.753-2.609-6.096-7.693-6.096-13.227v-139.002c0-8.284 5.166-15 11.538-15h46.106c6.372 0 11.538 6.716 11.538 15v139.002c0 5.533-2.343 10.617-6.096 13.227-1.705 1.185-3.575 1.773-5.441 1.773z" fill="#fc5866"/><path d="m78.674 130.787h-23.053v152.035l16.649 14.443c1.932 1.676 4.165 2.523 6.405 2.523 1.866 0 3.736-.588 5.441-1.773 3.753-2.609 6.096-7.693 6.096-13.227v-139.001c0-8.284-5.165-15-11.538-15z" fill="#f63b61"/></g><g><path d="m479.433 299.789c-2.24 0-4.474-.848-6.405-2.523l-16.649-14.443-16.649 14.443c-3.541 3.071-8.094 3.361-11.846.75-3.753-2.609-6.096-7.693-6.096-13.227v-139.002c0-8.284 5.166-15 11.538-15h46.106c6.372 0 11.538 6.716 11.538 15v139.002c0 5.533-2.343 10.617-6.096 13.227-1.705 1.185-3.576 1.773-5.441 1.773z" fill="#f63b61"/><path d="m479.432 130.787h-23.053v152.035l16.649 14.443c1.932 1.676 4.165 2.523 6.405 2.523 1.866 0 3.736-.588 5.441-1.773 3.753-2.609 6.096-7.693 6.096-13.227v-139.001c0-8.284-5.166-15-11.538-15z" fill="#f61845"/></g></g></g><g><g><path d="m374.978 394.401c-2.815 0-5.623-.791-8.081-2.362l-31.409-20.081-31.409 20.081c-4.618 2.953-10.478 3.151-15.284.52-4.807-2.633-7.796-7.677-7.796-13.157v-92.045c0-8.284 6.716-15 15-15h78.979c8.284 0 15 6.716 15 15v92.045c0 5.48-2.989 10.524-7.796 13.157-2.249 1.23-4.729 1.842-7.204 1.842z" fill="#6fb3e8"/><path d="m374.977 272.356h-39.489v99.602l31.409 20.081c2.458 1.571 5.266 2.362 8.081 2.362 2.475 0 4.955-.612 7.204-1.843 4.807-2.633 7.796-7.677 7.796-13.157v-92.045c-.001-8.284-6.717-15-15.001-15z" fill="#2b8ef5"/></g><g><path d="m335.488 319.43c-9.645 0-16.506-5.626-21.047-9.35-1.082-.888-2.701-2.215-3.402-2.605-.769-.245-3.046-.484-4.565-.645-5.752-.605-14.443-1.519-21.07-8.145-6.627-6.627-7.541-15.318-8.146-21.07-.158-1.501-.394-3.743-.652-4.578-.4-.709-1.716-2.314-2.598-3.389-3.723-4.541-9.35-11.402-9.35-21.048s5.626-16.507 9.35-21.048c.888-1.082 2.214-2.7 2.605-3.401.246-.77.485-3.047.645-4.565.605-5.752 1.52-14.443 8.146-21.069 6.626-6.627 15.318-7.541 21.07-8.146 1.501-.158 3.743-.394 4.578-.652.708-.4 2.313-1.716 3.389-2.598 4.541-3.724 11.402-9.35 21.047-9.35s16.507 5.626 21.048 9.35c1.083.888 2.701 2.215 3.402 2.605.768.245 3.045.484 4.564.645 5.751.605 14.444 1.519 21.07 8.146 6.626 6.626 7.54 15.318 8.146 21.07.158 1.5.393 3.741.652 4.577.401.709 1.716 2.313 2.598 3.389 3.723 4.54 9.35 11.402 9.35 21.048 0 9.645-5.627 16.508-9.35 21.048-.888 1.083-2.215 2.701-2.606 3.402-.245.768-.484 3.045-.644 4.563-.605 5.752-1.519 14.444-8.146 21.07-6.626 6.627-15.318 7.541-21.07 8.146-1.501.158-3.743.393-4.579.652-.708.4-2.313 1.716-3.388 2.598-4.54 3.724-11.402 9.35-21.047 9.35z" fill="#2676e9"/><path d="m396.967 227.553c-.882-1.076-2.197-2.68-2.598-3.389-.258-.836-.494-3.077-.652-4.577-.605-5.752-1.519-14.444-8.146-21.07-6.626-6.627-15.318-7.541-21.07-8.146-1.519-.16-3.796-.399-4.564-.645-.701-.391-2.319-1.718-3.402-2.605-4.541-3.724-11.403-9.35-21.048-9.35v141.659c9.645 0 16.507-5.626 21.048-9.35 1.075-.882 2.68-2.197 3.388-2.598.836-.259 3.078-.494 4.579-.652 5.751-.605 14.444-1.519 21.07-8.146 6.626-6.626 7.54-15.318 8.146-21.07.16-1.519.399-3.796.644-4.563.391-.701 1.718-2.319 2.606-3.402 3.723-4.54 9.35-11.402 9.35-21.048-.001-9.646-5.628-16.508-9.351-21.048z" fill="#1063e0"/></g></g></g></g></svg>