<svg fill="#000000" xmlns="http://www.w3.org/2000/svg"  viewBox="0 0 50 50" width="50px" height="50px"><path d="M 29.058594 47.273438 L 27.773438 46.972656 C 27.277344 46.859375 25.808594 46.558594 25 46.558594 C 24.1875 46.558594 22.707031 46.859375 22.203125 46.976563 L 20.917969 47.269531 L 21.800781 28.734375 L 6.40625 2.546875 L 8.628906 3.023438 C 8.644531 3.023438 10.09375 3.332031 11.183594 3.332031 C 12.277344 3.332031 13.722656 3.027344 13.738281 3.023438 L 14.445313 2.871094 L 25.027344 20.980469 L 35.722656 2.777344 L 36.503906 3.058594 C 36.511719 3.0625 37.585938 3.441406 38.816406 3.441406 C 40.152344 3.441406 41.230469 3.0625 41.238281 3.058594 L 43.828125 2.136719 L 28.246094 28.734375 Z M 10.339844 5.292969 L 23.828125 28.234375 L 23.039063 44.769531 C 23.671875 44.660156 24.421875 44.558594 25 44.558594 C 25.574219 44.558594 26.316406 44.660156 26.945313 44.769531 L 26.222656 28.234375 L 39.59375 5.410156 C 39.347656 5.429688 39.085938 5.441406 38.816406 5.441406 C 37.964844 5.441406 37.183594 5.304688 36.632813 5.171875 L 25.019531 24.9375 L 13.4375 5.113281 C 12.839844 5.210938 11.960938 5.332031 11.183594 5.332031 C 10.910156 5.332031 10.625 5.316406 10.339844 5.292969 Z"/></svg>